<?xml version="1.0" standalone="no"?>
<!DOCTYPE svg PUBLIC "-//W3C//DTD SVG 20010904//EN"
 "http://www.w3.org/TR/2001/REC-SVG-20010904/DTD/svg10.dtd">
<svg version="1.0" xmlns="http://www.w3.org/2000/svg"
 width="700.000000pt" height="700.000000pt" viewBox="0 0 700.000000 700.000000"
 preserveAspectRatio="xMidYMid meet">
<metadata>
Created by potrace 1.14, written by Peter Selinger 2001-2017
</metadata>
<g transform="translate(0.000000,700.000000) scale(0.100000,-0.100000)"
fill="#000000" stroke="none">
<path d="M6140 6958 c-96 -46 -112 -74 -265 -447 -75 -184 -133 -337 -128
-341 4 -5 98 -45 208 -90 110 -44 272 -111 360 -147 318 -131 324 -133 334
-115 15 30 248 605 264 652 41 124 -23 271 -144 332 -72 37 -385 163 -438 178
-63 17 -125 9 -191 -22z"/>
<path d="M5604 5844 c-14 -33 -29 -68 -34 -79 -21 -51 -105 -255 -164 -402
-103 -255 -186 -456 -196 -478 -5 -11 -39 -94 -75 -185 -36 -91 -70 -174 -75
-185 -10 -22 -93 -224 -207 -505 -41 -102 -83 -203 -92 -225 -42 -96 -45 -106
-31 -115 7 -5 104 -45 214 -91 111 -45 308 -126 439 -180 l239 -97 13 31 c7
18 58 145 114 282 56 138 106 259 111 270 5 11 41 99 80 195 39 96 75 184 80
195 5 11 38 92 74 180 36 88 113 277 171 420 58 143 124 305 147 360 22 55 46
114 53 130 33 75 67 166 64 169 -2 1 -96 40 -209 86 -182 74 -644 263 -678
277 -8 3 -22 -16 -38 -53z"/>
<path d="M245 5643 c-90 -19 -156 -66 -192 -136 -22 -43 -26 -65 -26 -132 0
-75 7 -102 112 -425 62 -190 119 -363 126 -385 13 -39 37 -114 125 -395 23
-74 47 -151 53 -170 6 -19 12 -39 13 -45 2 -5 37 -125 79 -265 106 -355 174
-611 214 -805 5 -22 23 -105 40 -185 17 -80 33 -154 36 -165 2 -11 6 -29 9
-40 12 -53 18 -80 46 -215 17 -80 35 -163 40 -185 12 -50 57 -261 64 -295 9
-47 55 -255 77 -345 11 -49 22 -97 24 -105 2 -8 12 -53 24 -100 11 -47 23
-113 26 -148 16 -172 104 -267 285 -309 38 -8 165 -9 207 -2 128 24 257 127
282 224 10 39 6 131 -8 172 -12 35 -12 53 -2 98 7 30 12 57 13 60 1 36 228
654 296 806 11 24 41 94 67 154 26 61 61 139 77 174 184 402 388 974 552 1545
l54 189 7 -64 c3 -35 8 -75 10 -89 2 -14 7 -51 10 -83 4 -32 8 -66 10 -75 1
-9 6 -42 10 -72 9 -71 14 -109 20 -140 3 -14 7 -41 9 -60 4 -29 23 -149 41
-260 24 -145 37 -223 45 -265 6 -27 28 -151 50 -275 39 -223 54 -304 70 -390
5 -25 13 -72 19 -105 6 -33 22 -121 35 -195 33 -180 67 -378 72 -415 2 -16 6
-37 9 -45 2 -8 7 -37 10 -65 16 -130 72 -345 140 -535 21 -58 41 -128 45 -156
25 -161 181 -276 375 -275 107 0 175 29 250 105 60 61 61 63 317 631 141 314
273 611 293 660 19 50 40 99 45 110 48 108 60 139 60 149 0 6 -35 43 -77 83
l-78 72 40 16 c22 9 94 40 160 67 66 28 179 75 250 104 72 30 141 60 155 67
18 9 39 48 87 162 35 82 63 153 63 156 0 3 -35 20 -77 37 -80 31 -482 195
-518 211 -11 4 -31 13 -45 19 -14 6 -61 25 -105 43 -44 17 -94 37 -112 45 -52
23 -42 37 -129 -182 l-45 -112 116 -279 c64 -153 123 -291 131 -306 19 -39 7
-33 -86 52 -135 123 -124 118 -156 76 -66 -87 -214 -391 -395 -813 -53 -123
-76 -167 -81 -155 -4 10 -17 65 -28 123 -12 58 -24 114 -26 125 -3 11 -11 53
-19 93 -8 41 -17 77 -19 80 -2 4 -7 23 -10 42 -3 19 -8 46 -11 60 -3 14 -7 36
-10 50 -3 14 -7 34 -9 45 -52 240 -127 594 -136 640 -14 73 -17 90 -35 180 -8
39 -17 86 -20 105 -8 45 -44 248 -50 280 -6 37 -26 161 -31 195 -2 17 -6 41
-9 55 -2 14 -7 48 -10 75 -3 28 -7 61 -10 75 -2 14 -7 46 -10 72 -3 26 -7 62
-9 80 -10 71 -16 125 -22 183 -3 33 -7 71 -9 85 -2 14 -11 84 -20 155 -52 419
-121 754 -182 884 -77 161 -249 234 -390 165 -162 -79 -347 -379 -504 -818
-63 -175 -96 -276 -239 -731 -15 -49 -49 -157 -75 -240 -135 -429 -368 -1093
-445 -1270 -5 -11 -37 -87 -71 -170 -83 -201 -82 -200 -99 -117 -7 37 -55 265
-107 507 -52 242 -96 456 -99 475 -3 19 -8 38 -10 42 -3 5 -12 47 -40 188 -7
37 -61 266 -95 410 -17 69 -32 132 -34 140 -43 201 -231 846 -340 1165 -111
326 -137 383 -207 456 -65 68 -122 92 -223 94 -44 1 -89 0 -100 -2z"/>
</g>
</svg>
