<svg xmlns="http://www.w3.org/2000/svg" xmlns:xlink="http://www.w3.org/1999/xlink" width="100%" height="100%" viewBox="0 0 700 700" preserveAspectRatio="xMinYMin meet" ><rect id="svgEditorBackground" x="0" y="0" width="810" height="700" style="fill: none; stroke: none;"/><g id="g_e1_svg"><svg xmlns="http://www.w3.org/2000/svg" xmlns:xlink="http://www.w3.org/1999/xlink" width="613.861" height="613.861" viewBox="0 0 137.0157470703125 112.33333587646484" preserveAspectRatio="xMidYMid meet" id="e1_svg" x="17.822" y="60.396"><clipPath id="p.0"><path d="m0 0l137.01575 0l0 112.333336l-137.01575 0l0 -112.333336z" clip-rule="nonzero"/></clipPath><g clip-path="url(#p.0)"/></svg></g><g id="g_e2_svg"><svg xmlns="http://www.w3.org/2000/svg" xmlns:xlink="http://www.w3.org/1999/xlink" width="580.198" height="580.198" viewBox="0 0 137.0157470703125 112.33333587646484" preserveAspectRatio="xMidYMid meet" id="e2_svg" x="43.197" y="95.126"><clipPath id="p.0"><path d="m0 0l137.01575 0l0 112.333336l-137.01575 0l0 -112.333336z" clip-rule="nonzero"/></clipPath><g clip-path="url(#p.0)"/></svg></g><g id="g_e3_svg"><svg xmlns="http://www.w3.org/2000/svg" xmlns:xlink="http://www.w3.org/1999/xlink" width="535.644" height="535.644" viewBox="0 0 137.0157470703125 112.33333587646484" preserveAspectRatio="xMidYMid meet" id="e3_svg" x="-7.298" y="144.630"><clipPath id="p.0"><path d="m0 0l137.01575 0l0 112.333336l-137.01575 0l0 -112.333336z" clip-rule="nonzero"/></clipPath><g clip-path="url(#p.0)"/></svg></g><g id="g_e4_svg" transform="matrix(1 0 0 1 59.4059 37.6238)"><svg xmlns="http://www.w3.org/2000/svg" xmlns:xlink="http://www.w3.org/1999/xlink" width="568.317" height="568.317" viewBox="0 0 137.0157470703125 112.33333587646484" preserveAspectRatio="xMidYMid meet" id="e4_svg" x="16.464" y="109.977"><clipPath id="p.0"><path d="m0 0l137.01575 0l0 112.333336l-137.01575 0l0 -112.333336z" clip-rule="nonzero"/></clipPath><g clip-path="url(#p.0)"><path fill="#000000" fill-opacity="0.0" d="m0 0l137.01575 0l0 112.333336l-137.01575 0z" fill-rule="evenodd"/><path fill="#000000" fill-opacity="0.0" d="m-8.690289,-29.017061l143.30708,0l0,174.51968l-143.30708,0Z" fill-rule="evenodd" transform="matrix(1 0 0 1 -2.43467e-11 -1.44654)"/></g></svg></g><g id="g_e5_svg"><svg xmlns="http://www.w3.org/2000/svg" xmlns:xlink="http://www.w3.org/1999/xlink" width="623.762" height="623.762" viewBox="0 0 137.0157470703125 112.33333587646484" preserveAspectRatio="xMidYMid meet" id="e5_svg" x="-21.159" y="68.393"><clipPath id="p.0"><path d="m0 0l137.01575 0l0 112.333336l-137.01575 0l0 -112.333336z" clip-rule="nonzero"/></clipPath><g clip-path="url(#p.0)"><path fill="#000000" fill-opacity="0.0" d="m0,0l137.01575,0l0,112.333336l-137.01575,0Z" fill-rule="evenodd"/><path fill="#000000" fill-opacity="0.0" d="m-8.690289,-29.017061l143.30708,0l0,174.51968l-143.30708,0Z" fill-rule="evenodd"/><path fill="#000000" d="M89.247208,108.862946q-2.875,0,-5.0625,-1.625q-2.5,-1.875,-2.5,-4.625q-2.875,-7.5625,-3.625,-12.3125q-0.75,-4.75,-4.9375,-26.9375q-3.1875,-16.8125,-4.25,-27q-5.562496,20.625,-11.937496,34.9375q-7.375,16.5625,-9.5625,25.9375q0.75,1.4375,0.75,2.8125q0,2.8125,-2.5,4.625q-2.25,1.6875,-5.125,1.6875q-8.4375,0,-8.4375,-7.5625l-1.9375,-7.9375l-6.8125,-30.625q-4.0625,-15.5,-13.875,-44.4375q-0.4375,-1.375,-0.4375,-2.5q0,-5.8125,6.5625,-5.8125q4.0625,0,6.25,4.4375q1.125,2.25,4.5625,12.9375q3.6875,11.3125,7.375,27.25l6.0625,27.625q6.6875,-15.5,13.3125,-37.75q4.0625,-13.562502,6.1875,-18.812502q5.624996,-13.812499,10.937496,-13.812499q4.375,0,6.1875,4.4375q2.25,5.374999,4.5625,25.625q1.25,10.25,4.25,24.625l5.375,24.5625q8.375,-20.125,10.146622,-20.995682l8.16993,7.231567l-3.516083,8.605003q-3.175468,7.034111,-9.425468,21.221611q-2.25,4.1875,-6.75,4.1875Z" fill-rule="nonzero" transform="matrix(1.0793 0.00642532 -0.00642532 1.0793 -4.46782 -5.86847)"/></g></svg></g><g transform="matrix(0.767856 2.42636 -2.42636 0.767856 669.143 30.3001)" style="fill:rosybrown; stroke:black; vector-effect:non-scaling-stroke;stroke-width:1px;" id="e7_shape"><path d="M2.864,26.864l17.086,17.086l24,-24l-17.086,-17.086c-3.818,-3.819,-10.009,-3.819,-13.828,0l-10.172,10.172c-3.819,3.818,-3.819,10.009,0,13.828Z" style="fill:gray;" transform="matrix(1.09698 -0.0998755 0.0998755 1.09698 -17.9297 -4.95772)"/><path d="M88,112.001l-60.050,-60.050l24,-24l60.050,60.049l-24,24Z" style="fill:navy;" transform="matrix(1.09698 -0.0998755 0.0998755 1.09698 -17.9297 -4.95772)"/><path d="M96,120l8,8h24v-24l-8,-8Z" style="fill:black;" transform="matrix(1.09698 -0.0998755 0.0998755 1.09698 -17.9297 -4.95772)"/></g></svg>